<?xml version="1.0" encoding="utf-8"?>
<!-- Generator: Adobe Illustrator 16.0.0, SVG Export Plug-In . SVG Version: 6.00 Build 0)  -->
<!DOCTYPE svg PUBLIC "-//W3C//DTD SVG 1.1//EN" "http://www.w3.org/Graphics/SVG/1.1/DTD/svg11.dtd">
<svg version="1.1" id="Layer_1" xmlns="http://www.w3.org/2000/svg" xmlns:xlink="http://www.w3.org/1999/xlink" x="0px" y="0px"
	 width="363.092px" height="363.092px" viewBox="0 0 363.092 363.092" enable-background="new 0 0 363.092 363.092"
	 xml:space="preserve">
<circle fill="#FF5722" cx="182.678" cy="184.41" r="158.091"/>
<path fill="#191919" d="M344.09,0H19.002C8.508,0,0,8.508,0,19.003v325.086c0,10.495,8.508,19.003,19.002,19.003H344.09
	c10.493,0,19.001-8.508,19.001-19.003V19.003C363.092,8.508,354.583,0,344.09,0z M31.676,181.546
	c0-38.269,14.345-73.187,37.949-99.673c-0.907,3.738-1.381,7.703-1.381,11.868v0.463c0,32.186,21.071,41.216,53.718,49.551
	c27.092,6.947,32.649,11.578,32.649,20.608v0.463c0,9.494-8.799,15.282-23.386,15.282c-18.524,0-33.807-7.641-48.394-19.682
	L61.76,185.666c19.45,17.365,44.227,25.933,68.77,25.933c9.861,0,18.893-1.437,26.78-4.222v110.83h35.196V215.168l70.321,92.311
	c-23.415,15.144-51.32,23.937-81.28,23.937C98.775,331.415,31.676,264.316,31.676,181.546z M301.332,271.625V156.124h-35.195v99.796
	l-75.949-99.796h-0.341c-2.018-24.845-20.248-35.79-51.214-43.858c-28.017-7.179-34.963-10.651-34.963-21.303V90.5
	c0-7.873,7.179-14.125,20.84-14.125c13.661,0,27.785,6.02,42.141,15.977l18.524-26.859c-16.44-13.198-36.585-20.607-60.203-20.607
	c-1.838,0-3.647,0.06-5.424,0.178c18.894-8.596,39.887-13.387,61.998-13.387c82.771,0,149.87,67.1,149.87,149.87
	C331.416,215.355,320.218,246.55,301.332,271.625z"/>
</svg>
